# xmcd
#
# Track frame offsets: 
#        150
#        19331
#        40053
#        63569
#        81725
#        104114
#        123899
#        147415
#        165095
#        184085
#        209136
#        230022
#        248233
#        271624
#        292635
#        308173
#
# Disc length: 4383 seconds
#
# Revision: 0
# Processed by: cddbd v1.5.1PL0 Copyright (c) Steve Scherf et al.
# Submitted via: ExactAudioCopy v0.95a5
#
DISCID=e8111d10
DTITLE=MC Hammer - Full Blast
DYEAR=2004
DGENRE=Hip-Hop
TTITLE0=Sunshine In The Summertime (feat. Pleasure)
TTITLE1=Full Blast
TTITLE2=Hard Times (feat. The Stooge Playas Ivan And Pleasure)
TTITLE3=I Won't Give Up (feat. Pleasur And Ivan)
TTITLE4=Sunshine In The Summertime (Instrumental)
TTITLE5=I Used To Love Her (Instrumental)
TTITLE6=Hard Times (Instrumental)
TTITLE7=Addams Groove
TTITLE8=U Can't Touch This
TTITLE9=Too Legit To Quit
TTITLE10=This Is The Way We Roll
TTITLE11=I Won't Give Up (Instrumental)
TTITLE12=Pray
TTITLE13=Turn This Mutha Out
TTITLE14=They Put Me In The Mix
TTITLE15=Full Blast (Instrumental)
EXTD=
EXTT0=
EXTT1=
EXTT2=
EXTT3=
EXTT4=
EXTT5=
EXTT6=
EXTT7=
EXTT8=
EXTT9=
EXTT10=
EXTT11=
EXTT12=
EXTT13=
EXTT14=
EXTT15=
PLAYORDER=
